# The Forge — chapter 02 probe
# Generated by tools/make-probe.mjs. +Z is forward.
# 235 vertices, 270 faces
o probe
v 0.62000 0.00000 0.34000
v 0.59887 0.16047 0.34000
v 0.53694 0.31000 0.34000
v 0.43841 0.43841 0.34000
v 0.31000 0.53694 0.34000
v 0.16047 0.59887 0.34000
v 0.00000 0.62000 0.34000
v -0.16047 0.59887 0.34000
v -0.31000 0.53694 0.34000
v -0.43841 0.43841 0.34000
v -0.53694 0.31000 0.34000
v -0.59887 0.16047 0.34000
v -0.62000 0.00000 0.34000
v -0.59887 -0.16047 0.34000
v -0.53694 -0.31000 0.34000
v -0.43841 -0.43841 0.34000
v -0.31000 -0.53694 0.34000
v -0.16047 -0.59887 0.34000
v -0.00000 -0.62000 0.34000
v 0.16047 -0.59887 0.34000
v 0.31000 -0.53694 0.34000
v 0.43841 -0.43841 0.34000
v 0.53694 -0.31000 0.34000
v 0.59887 -0.16047 0.34000
v 0.40000 0.00000 0.20000
v 0.38637 0.10353 0.20000
v 0.34641 0.20000 0.20000
v 0.28284 0.28284 0.20000
v 0.20000 0.34641 0.20000
v 0.10353 0.38637 0.20000
v 0.00000 0.40000 0.20000
v -0.10353 0.38637 0.20000
v -0.20000 0.34641 0.20000
v -0.28284 0.28284 0.20000
v -0.34641 0.20000 0.20000
v -0.38637 0.10353 0.20000
v -0.40000 0.00000 0.20000
v -0.38637 -0.10353 0.20000
v -0.34641 -0.20000 0.20000
v -0.28284 -0.28284 0.20000
v -0.20000 -0.34641 0.20000
v -0.10353 -0.38637 0.20000
v -0.00000 -0.40000 0.20000
v 0.10353 -0.38637 0.20000
v 0.20000 -0.34641 0.20000
v 0.28284 -0.28284 0.20000
v 0.34641 -0.20000 0.20000
v 0.38637 -0.10353 0.20000
v 0.18000 0.00000 0.12000
v 0.17387 0.04659 0.12000
v 0.15588 0.09000 0.12000
v 0.12728 0.12728 0.12000
v 0.09000 0.15588 0.12000
v 0.04659 0.17387 0.12000
v 0.00000 0.18000 0.12000
v -0.04659 0.17387 0.12000
v -0.09000 0.15588 0.12000
v -0.12728 0.12728 0.12000
v -0.15588 0.09000 0.12000
v -0.17387 0.04659 0.12000
v -0.18000 0.00000 0.12000
v -0.17387 -0.04659 0.12000
v -0.15588 -0.09000 0.12000
v -0.12728 -0.12728 0.12000
v -0.09000 -0.15588 0.12000
v -0.04659 -0.17387 0.12000
v -0.00000 -0.18000 0.12000
v 0.04659 -0.17387 0.12000
v 0.09000 -0.15588 0.12000
v 0.12728 -0.12728 0.12000
v 0.15588 -0.09000 0.12000
v 0.17387 -0.04659 0.12000
v 0.00000 0.00000 0.09000
v 0.62000 0.00000 0.30000
v 0.59887 0.16047 0.30000
v 0.53694 0.31000 0.30000
v 0.43841 0.43841 0.30000
v 0.31000 0.53694 0.30000
v 0.16047 0.59887 0.30000
v 0.00000 0.62000 0.30000
v -0.16047 0.59887 0.30000
v -0.31000 0.53694 0.30000
v -0.43841 0.43841 0.30000
v -0.53694 0.31000 0.30000
v -0.59887 0.16047 0.30000
v -0.62000 0.00000 0.30000
v -0.59887 -0.16047 0.30000
v -0.53694 -0.31000 0.30000
v -0.43841 -0.43841 0.30000
v -0.31000 -0.53694 0.30000
v -0.16047 -0.59887 0.30000
v -0.00000 -0.62000 0.30000
v 0.16047 -0.59887 0.30000
v 0.31000 -0.53694 0.30000
v 0.43841 -0.43841 0.30000
v 0.53694 -0.31000 0.30000
v 0.59887 -0.16047 0.30000
v 0.00000 0.00000 0.26000
v 0.04500 0.00000 0.34000
v 0.03182 0.03182 0.34000
v 0.00000 0.04500 0.34000
v -0.03182 0.03182 0.34000
v -0.04500 0.00000 0.34000
v -0.03182 -0.03182 0.34000
v -0.00000 -0.04500 0.34000
v 0.03182 -0.03182 0.34000
v 0.04500 0.00000 0.62000
v 0.03182 0.03182 0.62000
v 0.00000 0.04500 0.62000
v -0.03182 0.03182 0.62000
v -0.04500 0.00000 0.62000
v -0.03182 -0.03182 0.62000
v -0.00000 -0.04500 0.62000
v 0.03182 -0.03182 0.62000
v 0.00000 0.00000 0.34000
v 0.00000 0.00000 0.62000
v 0.09000 0.00000 0.62000
v 0.06364 0.06364 0.62000
v 0.00000 0.09000 0.62000
v -0.06364 0.06364 0.62000
v -0.09000 0.00000 0.62000
v -0.06364 -0.06364 0.62000
v -0.00000 -0.09000 0.62000
v 0.06364 -0.06364 0.62000
v 0.09000 0.00000 0.70000
v 0.06364 0.06364 0.70000
v 0.00000 0.09000 0.70000
v -0.06364 0.06364 0.70000
v -0.09000 0.00000 0.70000
v -0.06364 -0.06364 0.70000
v -0.00000 -0.09000 0.70000
v 0.06364 -0.06364 0.70000
v 0.00000 0.00000 0.62000
v 0.00000 0.00000 0.70000
v 0.26000 0.00000 0.04000
v 0.21034 0.15282 0.04000
v 0.08034 0.24727 0.04000
v -0.08034 0.24727 0.04000
v -0.21034 0.15282 0.04000
v -0.26000 0.00000 0.04000
v -0.21034 -0.15282 0.04000
v -0.08034 -0.24727 0.04000
v 0.08034 -0.24727 0.04000
v 0.21034 -0.15282 0.04000
v 0.26000 0.00000 -0.24000
v 0.21034 0.15282 -0.24000
v 0.08034 0.24727 -0.24000
v -0.08034 0.24727 -0.24000
v -0.21034 0.15282 -0.24000
v -0.26000 0.00000 -0.24000
v -0.21034 -0.15282 -0.24000
v -0.08034 -0.24727 -0.24000
v 0.08034 -0.24727 -0.24000
v 0.21034 -0.15282 -0.24000
v 0.00000 0.00000 0.04000
v 0.00000 0.00000 -0.24000
v 0.02800 0.00000 -0.10000
v 0.01400 0.02425 -0.10000
v -0.01400 0.02425 -0.10000
v -0.02800 0.00000 -0.10000
v -0.01400 -0.02425 -0.10000
v 0.01400 -0.02425 -0.10000
v 0.02800 0.00000 -0.11000
v 0.01400 0.02425 -0.11000
v -0.01400 0.02425 -0.11000
v -0.02800 0.00000 -0.11000
v -0.01400 -0.02425 -0.11000
v 0.01400 -0.02425 -0.11000
v 0.00000 0.00000 -0.10000
v 0.00000 0.00000 -0.11000
v -0.80000 -0.07500 -0.17500
v -0.24000 -0.07500 -0.17500
v -0.24000 0.07500 -0.17500
v -0.80000 0.07500 -0.17500
v -0.80000 -0.07500 -0.02500
v -0.24000 -0.07500 -0.02500
v -0.24000 0.07500 -0.02500
v -0.80000 0.07500 -0.02500
v -0.96000 -0.10000 -0.20000
v -0.76000 -0.10000 -0.20000
v -0.76000 0.10000 -0.20000
v -0.96000 0.10000 -0.20000
v -0.96000 -0.10000 0.00000
v -0.76000 -0.10000 0.00000
v -0.76000 0.10000 0.00000
v -0.96000 0.10000 0.00000
v 0.22000 -0.01800 -0.09800
v 1.02000 -0.01800 -0.09800
v 1.02000 0.01800 -0.09800
v 0.22000 0.01800 -0.09800
v 0.22000 -0.01800 -0.06200
v 1.02000 -0.01800 -0.06200
v 1.02000 0.01800 -0.06200
v 0.22000 0.01800 -0.06200
v 1.01000 -0.05000 -0.13000
v 1.11000 -0.05000 -0.13000
v 1.11000 0.05000 -0.13000
v 1.01000 0.05000 -0.13000
v 1.01000 -0.05000 -0.03000
v 1.11000 -0.05000 -0.03000
v 1.11000 0.05000 -0.03000
v 1.01000 0.05000 -0.03000
v -0.04000 -0.44000 -0.16000
v 0.24000 -0.44000 -0.16000
v 0.24000 -0.24000 -0.16000
v -0.04000 -0.24000 -0.16000
v -0.04000 -0.44000 0.12000
v 0.24000 -0.44000 0.12000
v 0.24000 -0.24000 0.12000
v -0.04000 -0.24000 0.12000
v 0.10000 0.00000 -0.24000
v 0.08660 0.05000 -0.24000
v 0.05000 0.08660 -0.24000
v 0.00000 0.10000 -0.24000
v -0.05000 0.08660 -0.24000
v -0.08660 0.05000 -0.24000
v -0.10000 0.00000 -0.24000
v -0.08660 -0.05000 -0.24000
v -0.05000 -0.08660 -0.24000
v -0.00000 -0.10000 -0.24000
v 0.05000 -0.08660 -0.24000
v 0.08660 -0.05000 -0.24000
v 0.20000 0.00000 -0.46000
v 0.17321 0.10000 -0.46000
v 0.10000 0.17321 -0.46000
v 0.00000 0.20000 -0.46000
v -0.10000 0.17321 -0.46000
v -0.17321 0.10000 -0.46000
v -0.20000 0.00000 -0.46000
v -0.17321 -0.10000 -0.46000
v -0.10000 -0.17321 -0.46000
v -0.00000 -0.20000 -0.46000
v 0.10000 -0.17321 -0.46000
v 0.17321 -0.10000 -0.46000
v 0.00000 0.00000 -0.50000
f 1 2 26 25
f 2 3 27 26
f 3 4 28 27
f 4 5 29 28
f 5 6 30 29
f 6 7 31 30
f 7 8 32 31
f 8 9 33 32
f 9 10 34 33
f 10 11 35 34
f 11 12 36 35
f 12 13 37 36
f 13 14 38 37
f 14 15 39 38
f 15 16 40 39
f 16 17 41 40
f 17 18 42 41
f 18 19 43 42
f 19 20 44 43
f 20 21 45 44
f 21 22 46 45
f 22 23 47 46
f 23 24 48 47
f 24 1 25 48
f 25 26 50 49
f 26 27 51 50
f 27 28 52 51
f 28 29 53 52
f 29 30 54 53
f 30 31 55 54
f 31 32 56 55
f 32 33 57 56
f 33 34 58 57
f 34 35 59 58
f 35 36 60 59
f 36 37 61 60
f 37 38 62 61
f 38 39 63 62
f 39 40 64 63
f 40 41 65 64
f 41 42 66 65
f 42 43 67 66
f 43 44 68 67
f 44 45 69 68
f 45 46 70 69
f 46 47 71 70
f 47 48 72 71
f 48 25 49 72
f 73 49 50
f 73 50 51
f 73 51 52
f 73 52 53
f 73 53 54
f 73 54 55
f 73 55 56
f 73 56 57
f 73 57 58
f 73 58 59
f 73 59 60
f 73 60 61
f 73 61 62
f 73 62 63
f 73 63 64
f 73 64 65
f 73 65 66
f 73 66 67
f 73 67 68
f 73 68 69
f 73 69 70
f 73 70 71
f 73 71 72
f 73 72 49
f 74 75 2 1
f 75 76 3 2
f 76 77 4 3
f 77 78 5 4
f 78 79 6 5
f 79 80 7 6
f 80 81 8 7
f 81 82 9 8
f 82 83 10 9
f 83 84 11 10
f 84 85 12 11
f 85 86 13 12
f 86 87 14 13
f 87 88 15 14
f 88 89 16 15
f 89 90 17 16
f 90 91 18 17
f 91 92 19 18
f 92 93 20 19
f 93 94 21 20
f 94 95 22 21
f 95 96 23 22
f 96 97 24 23
f 97 74 1 24
f 98 75 74
f 98 76 75
f 98 77 76
f 98 78 77
f 98 79 78
f 98 80 79
f 98 81 80
f 98 82 81
f 98 83 82
f 98 84 83
f 98 85 84
f 98 86 85
f 98 87 86
f 98 88 87
f 98 89 88
f 98 90 89
f 98 91 90
f 98 92 91
f 98 93 92
f 98 94 93
f 98 95 94
f 98 96 95
f 98 97 96
f 98 74 97
f 99 100 108 107
f 100 101 109 108
f 101 102 110 109
f 102 103 111 110
f 103 104 112 111
f 104 105 113 112
f 105 106 114 113
f 106 99 107 114
f 115 100 99
f 115 101 100
f 115 102 101
f 115 103 102
f 115 104 103
f 115 105 104
f 115 106 105
f 115 99 106
f 116 107 108
f 116 108 109
f 116 109 110
f 116 110 111
f 116 111 112
f 116 112 113
f 116 113 114
f 116 114 107
f 117 118 126 125
f 118 119 127 126
f 119 120 128 127
f 120 121 129 128
f 121 122 130 129
f 122 123 131 130
f 123 124 132 131
f 124 117 125 132
f 133 118 117
f 133 119 118
f 133 120 119
f 133 121 120
f 133 122 121
f 133 123 122
f 133 124 123
f 133 117 124
f 134 125 126
f 134 126 127
f 134 127 128
f 134 128 129
f 134 129 130
f 134 130 131
f 134 131 132
f 134 132 125
f 135 136 146 145
f 136 137 147 146
f 137 138 148 147
f 138 139 149 148
f 139 140 150 149
f 140 141 151 150
f 141 142 152 151
f 142 143 153 152
f 143 144 154 153
f 144 135 145 154
f 155 135 136
f 155 136 137
f 155 137 138
f 155 138 139
f 155 139 140
f 155 140 141
f 155 141 142
f 155 142 143
f 155 143 144
f 155 144 135
f 156 146 145
f 156 147 146
f 156 148 147
f 156 149 148
f 156 150 149
f 156 151 150
f 156 152 151
f 156 153 152
f 156 154 153
f 156 145 154
f 157 158 164 163
f 158 159 165 164
f 159 160 166 165
f 160 161 167 166
f 161 162 168 167
f 162 157 163 168
f 169 158 157
f 169 159 158
f 169 160 159
f 169 161 160
f 169 162 161
f 169 157 162
f 170 163 164
f 170 164 165
f 170 165 166
f 170 166 167
f 170 167 168
f 170 168 163
f 171 174 173 172
f 175 176 177 178
f 171 172 176 175
f 173 174 178 177
f 172 173 177 176
f 171 175 178 174
f 179 182 181 180
f 183 184 185 186
f 179 180 184 183
f 181 182 186 185
f 180 181 185 184
f 179 183 186 182
f 187 190 189 188
f 191 192 193 194
f 187 188 192 191
f 189 190 194 193
f 188 189 193 192
f 187 191 194 190
f 195 198 197 196
f 199 200 201 202
f 195 196 200 199
f 197 198 202 201
f 196 197 201 200
f 195 199 202 198
f 203 206 205 204
f 207 208 209 210
f 203 204 208 207
f 205 206 210 209
f 204 205 209 208
f 203 207 210 206
f 211 212 224 223
f 212 213 225 224
f 213 214 226 225
f 214 215 227 226
f 215 216 228 227
f 216 217 229 228
f 217 218 230 229
f 218 219 231 230
f 219 220 232 231
f 220 221 233 232
f 221 222 234 233
f 222 211 223 234
f 235 224 223
f 235 225 224
f 235 226 225
f 235 227 226
f 235 228 227
f 235 229 228
f 235 230 229
f 235 231 230
f 235 232 231
f 235 233 232
f 235 234 233
f 235 223 234
